<?xml version="1.0" standalone="no"?>
<!DOCTYPE svg PUBLIC "-//W3C//DTD SVG 20010904//EN"
 "http://www.w3.org/TR/2001/REC-SVG-20010904/DTD/svg10.dtd">
<svg version="1.0" xmlns="http://www.w3.org/2000/svg"
 width="8042.000000pt" height="1597.000000pt" viewBox="0 0 8042.000000 1597.000000"
 preserveAspectRatio="xMidYMid meet">
<metadata>
Created by potrace 1.16, written by Peter Selinger 2001-2019
</metadata>
<g transform="translate(0.000000,1597.000000) scale(0.100000,-0.100000)"
fill="#000000" stroke="none">
<path d="M23545 15954 c-55 -2 -269 -8 -475 -14 -1767 -50 -3578 -189 -5605
-430 -1473 -175 -2644 -395 -3651 -684 -750 -216 -1409 -491 -2170 -906 -755
-413 -1553 -951 -2569 -1735 -226 -174 -286 -217 -440 -318 -452 -295 -956
-507 -1465 -616 -52 -11 -216 -41 -365 -66 -586 -100 -1094 -198 -1710 -330
-642 -138 -1878 -449 -2190 -552 -308 -101 -560 -238 -734 -399 l-73 -68 128
-44 c571 -192 1679 -320 2594 -298 904 22 1579 88 3245 317 884 121 1675 238
3520 519 2967 452 3376 506 4215 562 270 18 1140 18 1235 0 169 -32 268 -119
294 -256 19 -104 -24 -177 -162 -277 -40 -29 -139 -105 -222 -169 -582 -454
-1250 -828 -2055 -1149 -625 -250 -759 -286 -1065 -285 -167 0 -205 3 -317 27
-200 42 -297 51 -543 51 -221 -1 -338 -7 -710 -40 -1118 -97 -2264 -339 -3715
-785 -195 -59 -430 -129 -523 -153 -633 -169 -1224 -264 -1972 -318 -280 -20
-1245 -17 -1560 5 -967 68 -1841 194 -3140 454 -275 55 -347 66 -435 66 -187
2 -293 -50 -388 -189 -32 -47 -195 -377 -232 -469 -176 -440 -254 -814 -281
-1335 -18 -340 8 -790 71 -1254 11 -82 20 -155 20 -162 0 -28 18 -13 23 19 17
94 173 792 208 930 102 397 237 711 380 885 114 138 260 227 431 263 132 27
233 24 510 -16 818 -116 1589 -157 2561 -136 540 12 771 22 1252 51 1244 78
2674 249 4215 505 605 101 754 104 918 21 144 -73 250 -207 537 -676 727
-1190 1124 -1764 1604 -2320 320 -370 527 -549 776 -670 216 -106 350 -135
610 -134 522 1 1876 131 2298 220 372 79 524 197 653 510 56 136 101 280 224
724 127 460 201 705 296 989 222 663 477 1207 773 1651 549 825 1159 1283
1847 1385 138 20 394 21 538 0 342 -48 686 -189 1018 -417 495 -341 862 -800
1108 -1389 73 -174 114 -288 266 -744 l134 -400 -5 150 c-18 579 -265 1409
-611 2049 -252 465 -540 827 -845 1059 -218 167 -504 298 -785 362 -209 46
-339 59 -619 59 -329 0 -584 -28 -975 -104 -58 -11 -109 -20 -115 -20 -5 0 15
25 45 56 179 183 509 296 990 339 395 35 854 6 1175 -76 132 -33 223 -38 278
-16 19 8 66 38 105 66 261 190 625 327 1031 388 102 15 114 19 122 41 15 40
10 93 -17 177 -34 101 -35 182 -5 251 l22 49 19 -25 c35 -46 169 -315 214
-430 56 -144 118 -357 150 -520 54 -268 78 -482 116 -1045 36 -536 69 -777
137 -997 l16 -53 8 40 c35 194 45 817 20 1305 -6 124 -14 389 -18 590 -5 323
-4 374 11 442 19 87 56 145 115 182 77 49 129 56 536 66 346 9 1263 43 1935
71 146 6 640 13 1098 15 898 3 904 4 1097 59 50 14 140 50 200 80 214 105 348
209 645 502 l225 223 -219 0 c-121 0 -589 -11 -1040 -25 -452 -14 -1201 -36
-1666 -50 -465 -14 -1070 -32 -1345 -40 -2425 -73 -2536 -75 -2657 -36 -93 30
-154 75 -192 141 -28 50 -31 62 -31 145 1 108 8 133 123 395 521 1200 1008
2007 1623 2695 418 468 801 734 1204 839 131 35 392 72 640 92 247 20 895 14
1155 -10 1647 -155 3264 -635 5255 -1561 193 -90 326 -153 700 -335 83 -40
186 -96 230 -125 101 -66 150 -91 209 -106 45 -11 118 -6 144 10 20 12 -7 70
-48 104 -57 48 -398 270 -630 409 -2051 1232 -4305 1937 -6800 2128 -530 40
-618 42 -1615 45 -544 1 -1035 0 -1090 -1z m775 -433 c0 -5 -11 -16 -24 -24
-13 -9 -57 -44 -97 -79 -586 -500 -1031 -987 -1695 -1858 -163 -213 -248 -325
-574 -757 -124 -164 -247 -290 -349 -358 -149 -99 -354 -167 -611 -205 -163
-24 -741 -69 -1405 -110 -1723 -106 -2093 -138 -2990 -261 -740 -101 -1410
-201 -2566 -383 -1959 -309 -3214 -487 -3844 -545 -676 -62 -1240 -59 -1756 9
-141 19 -498 85 -507 94 -2 3 23 7 55 11 189 22 395 95 581 206 127 76 215
139 469 337 358 278 1179 860 1708 1212 1098 728 2032 1210 2935 1513 382 129
628 194 1130 301 1665 354 3419 580 5565 716 634 40 1201 68 2675 130 888 38
1257 55 1288 59 6 0 12 -3 12 -8z m-9452 -9627 c243 -49 421 -216 531 -498
159 -407 173 -763 41 -1079 -53 -127 -103 -182 -190 -208 -19 -5 -150 -16
-290 -24 -140 -8 -320 -20 -400 -27 -223 -18 -568 -16 -659 5 -108 24 -193 68
-262 134 -111 106 -188 244 -331 598 -49 121 -104 243 -122 270 -57 87 -145
162 -336 290 -198 132 -312 223 -373 298 -37 45 -37 47 -15 51 13 3 433 44
933 91 501 47 973 91 1050 99 194 19 331 19 423 0z"/>
<path d="M26050 15124 c-409 -48 -711 -152 -1009 -349 -254 -167 -504 -422
-701 -715 -31 -47 -62 -95 -69 -107 -13 -25 -1 -31 21 -10 463 438 1056 712
1713 792 72 9 146 18 165 21 90 12 563 16 687 5 341 -30 447 -124 618 -546
130 -322 196 -537 395 -1300 118 -451 194 -700 212 -689 21 13 -6 415 -52 775
-38 301 -128 798 -215 1189 -26 116 -30 233 -11 285 47 121 171 115 831 -40
1281 -301 2532 -737 3849 -1340 309 -141 457 -184 706 -206 135 -11 317 -6
333 10 17 17 -830 430 -1358 663 -99 44 -193 86 -210 93 -402 181 -1476 598
-1970 765 -570 193 -857 278 -1345 400 -390 97 -716 159 -1230 236 -65 9 -304
35 -475 50 -159 14 -803 28 -885 18z"/>
<path d="M24470 13134 c-109 -10 -258 -38 -329 -61 -107 -35 -176 -76 -251
-152 -134 -136 -205 -337 -249 -713 -28 -234 -32 -286 -22 -292 5 -3 73 25
152 63 485 231 988 366 1599 428 243 24 917 25 1207 0 111 -9 211 -17 222 -17
40 0 65 154 41 242 -6 20 -28 60 -50 89 -73 97 -192 165 -411 233 -276 85
-498 124 -969 170 -69 7 -879 15 -940 10z"/>
<path d="M44685 12720 c-216 -15 -412 -57 -603 -132 -62 -24 -102 -45 -99 -52
3 -6 55 -138 117 -294 71 -179 116 -282 123 -278 238 103 414 146 598 146 253
0 386 -83 349 -219 -26 -97 -83 -111 -472 -111 l-298 0 0 -285 0 -284 373 -3
c336 -3 376 -5 414 -22 78 -33 105 -119 62 -195 -85 -153 -443 -184 -867 -77
-57 15 -132 37 -167 51 l-63 23 -111 -259 c-61 -143 -112 -268 -113 -277 -2
-12 22 -26 94 -54 546 -215 1215 -217 1641 -7 270 134 407 323 407 561 0 178
-47 295 -165 413 -39 39 -98 86 -133 105 -105 59 -102 53 -41 92 60 38 137
119 175 183 87 150 95 352 19 508 -153 312 -664 505 -1240 467z"/>
<path d="M42283 12699 c-432 -66 -794 -312 -968 -659 -88 -175 -127 -350 -127
-560 1 -223 36 -380 124 -555 123 -245 310 -426 561 -545 120 -57 196 -83 332
-112 136 -30 472 -33 610 -5 478 95 828 383 978 804 75 209 85 502 26 731 -54
207 -146 367 -299 523 -145 148 -289 239 -485 309 -167 59 -248 71 -480 75
-115 2 -238 -1 -272 -6z m359 -640 c187 -39 341 -197 394 -404 23 -92 23 -266
0 -355 -53 -208 -212 -369 -404 -409 -289 -60 -561 124 -628 425 -20 91 -15
290 10 366 60 186 198 327 367 372 65 18 189 20 261 5z"/>
<path d="M58270 12695 c-373 -64 -665 -245 -854 -528 -148 -223 -217 -477
-203 -752 23 -454 256 -819 653 -1022 109 -56 243 -103 374 -130 132 -28 479
-25 616 5 205 44 345 104 496 212 86 61 242 213 236 229 -2 5 -48 48 -104 97
-55 49 -158 141 -230 204 -71 64 -136 121 -145 128 -15 11 -27 3 -91 -60 -129
-127 -258 -186 -423 -195 -276 -15 -488 140 -562 411 -23 84 -23 279 0 366 57
216 214 366 420 401 100 16 236 7 318 -23 88 -32 195 -105 264 -179 51 -55 58
-60 73 -47 87 75 472 420 477 428 9 15 -127 153 -220 223 -155 116 -365 201
-570 232 -122 18 -418 18 -525 0z"/>
<path d="M34521 12633 c-50 -108 -1021 -2333 -1021 -2338 0 -3 181 -5 403 -5
l402 0 69 183 c38 100 75 194 83 210 l14 27 448 0 449 0 37 -97 c21 -54 57
-147 81 -208 l43 -110 411 -3 c329 -2 411 0 407 10 -3 7 -30 69 -60 138 -100
228 -924 2114 -947 2168 l-22 52 -393 0 -392 0 -12 -27z m475 -953 c37 -96 87
-224 110 -285 l43 -110 -226 -3 c-124 -1 -228 0 -231 2 -3 4 106 297 206 549
8 21 18 35 22 30 5 -4 39 -87 76 -183z"/>
<path d="M36580 11474 l0 -1185 738 4 c651 3 747 5 827 21 270 53 454 156 560
316 79 119 113 256 101 405 -18 211 -127 365 -327 461 l-78 38 47 31 c121 82
214 214 241 343 17 82 14 218 -8 294 -67 244 -315 406 -684 447 -59 7 -353 11
-757 11 l-660 0 0 -1186z m1238 608 c59 -31 86 -90 80 -174 -5 -62 -23 -96
-72 -132 -25 -19 -44 -21 -247 -24 l-219 -3 0 181 0 182 208 -4 c192 -3 210
-5 250 -26z m102 -882 c22 -11 47 -32 56 -45 43 -66 36 -196 -13 -249 -48 -53
-70 -56 -348 -56 l-255 0 0 185 0 185 260 0 c242 0 264 -1 300 -20z"/>
<path d="M38912 12354 l3 -305 343 1 342 0 0 -880 0 -880 395 0 395 0 0 878 0
877 345 3 345 2 0 305 0 305 -1085 0 -1085 0 2 -306z"/>
<path d="M47186 12628 c-7 -18 -236 -543 -509 -1165 -273 -623 -498 -1142
-502 -1153 -6 -20 -2 -20 397 -20 l403 0 79 210 79 210 452 0 452 0 79 -206
c43 -113 83 -208 88 -210 6 -2 192 -3 412 -2 l402 3 -177 405 c-97 223 -329
755 -516 1182 l-340 778 -392 0 -393 0 -14 -32z m497 -998 c52 -135 104 -269
116 -297 l21 -53 -230 0 c-127 0 -230 3 -230 8 -1 10 223 592 226 589 2 -1 45
-113 97 -247z"/>
<path d="M49250 11475 l0 -1185 390 0 390 0 0 880 0 880 363 -3 362 -2 3 -877
2 -878 390 0 390 0 0 1185 0 1185 -1145 0 -1145 0 0 -1185z"/>
<path d="M51780 12293 c0 -536 15 -647 111 -843 46 -92 64 -116 143 -195 104
-103 194 -158 331 -204 150 -50 257 -65 465 -65 168 0 196 2 304 28 65 15 125
30 132 33 12 4 14 -56 14 -376 l0 -381 390 0 390 0 0 1185 0 1185 -390 0 -390
0 0 -499 0 -499 -32 -12 c-61 -21 -192 -40 -283 -40 -194 0 -310 66 -368 210
-21 53 -22 72 -27 445 l-5 390 -392 3 -393 2 0 -367z"/>
<path d="M55312 12633 c-5 -16 -229 -530 -497 -1143 -268 -613 -496 -1134
-506 -1157 l-18 -43 404 0 404 0 61 158 c34 86 71 181 82 210 l20 52 451 -2
452 -3 79 -207 80 -208 413 0 412 0 -30 68 c-17 37 -101 227 -186 422 -85 195
-179 409 -208 475 -29 66 -78 179 -109 250 -31 72 -157 360 -279 640 l-224
510 -395 3 -396 2 -10 -27z m514 -1043 c59 -151 109 -283 111 -292 5 -17 -11
-18 -227 -18 -182 0 -231 3 -227 13 3 6 53 136 112 287 109 282 114 294 121
288 2 -2 51 -127 110 -278z"/>
<path d="M59680 12355 l0 -305 335 -1 c184 -1 341 -2 348 -3 9 -1 13 -185 15
-878 l2 -878 390 0 390 0 2 878 3 877 348 3 347 2 0 305 -1 305 -1090 0 -1089
0 0 -305z"/>
<path d="M62130 11475 l0 -1185 373 0 374 0 104 158 c496 751 701 1057 709
1060 7 2 10 -210 10 -607 l0 -611 390 0 390 0 0 1185 0 1185 -377 0 -378 -1
-70 -107 c-38 -59 -221 -336 -407 -617 l-338 -510 0 618 0 617 -390 0 -390 0
0 -1185z"/>
<path d="M16355 10589 c-38 -4 -162 -15 -275 -24 -113 -8 -227 -17 -255 -20
-27 -3 -129 -12 -225 -20 -597 -53 -1409 -146 -2010 -230 -206 -29 -574 -83
-610 -90 -14 -2 -45 -7 -70 -10 -195 -27 -1189 -201 -1445 -255 -234 -48 -515
-169 -694 -297 -157 -113 -362 -319 -508 -513 -79 -104 -222 -325 -215 -332 4
-3 54 4 112 17 202 46 396 84 540 105 80 12 262 42 405 66 1209 208 1410 231
1905 221 256 -5 415 -19 587 -52 121 -23 199 -20 261 11 64 32 111 84 197 222
205 325 421 539 674 666 l54 28 -7 -39 c-22 -121 -93 -270 -223 -467 -98 -149
-187 -316 -175 -328 10 -10 94 21 377 135 586 237 1068 476 1508 749 263 163
550 365 540 381 -11 18 -118 59 -191 73 -80 15 -148 16 -257 3z"/>
<path d="M1770 9523 c-57 -11 -149 -63 -208 -118 -78 -72 -145 -174 -257 -390
-99 -192 -155 -281 -215 -342 -23 -22 -38 -43 -33 -46 22 -13 752 -300 842
-332 221 -76 465 -124 628 -125 78 0 83 1 88 23 13 63 56 537 61 679 15 430
-73 530 -548 629 -137 28 -279 36 -358 22z"/>
<path d="M9590 9204 c-58 -13 -274 -57 -480 -99 -2415 -483 -4314 -610 -6005
-400 -104 13 -191 22 -192 21 -2 -1 30 -21 70 -44 197 -113 581 -193 1137
-238 501 -40 1645 -25 2285 31 721 63 1051 102 1560 185 874 142 1492 331
1693 517 31 29 53 52 47 52 -5 -1 -57 -12 -115 -25z"/>
<path d="M26130 8502 c-7 -3 -10 -872 -10 -2583 l0 -2579 660 0 660 0 0 1910
0 1910 4143 2 4142 3 0 668 0 667 -4793 3 c-2635 1 -4797 1 -4802 -1z"/>
<path d="M37289 8496 c-2 -2 -29 -6 -59 -9 -221 -24 -453 -113 -618 -237 -226
-170 -358 -411 -425 -775 l-22 -120 0 -2010 0 -2010 653 0 653 0 -1 773 0 772
3480 0 3480 0 2 -772 3 -773 660 0 660 0 3 1935 c2 1306 -1 1974 -8 2055 -32
366 -147 642 -347 837 -37 36 -81 77 -98 90 -96 77 -275 161 -419 197 -216 53
-5 51 -3942 51 -2008 0 -3653 -2 -3655 -4z m7012 -1316 c63 -12 104 -47 119
-99 6 -21 10 -211 10 -459 l0 -422 -3477 2 -3478 3 0 425 c0 421 0 425 23 471
23 48 47 66 103 79 52 12 6635 12 6700 0z"/>
<path d="M46167 8493 c-4 -3 -7 -1167 -7 -2585 l0 -2578 665 0 665 0 0 765 0
765 3519 0 c2392 0 3552 3 3622 11 259 26 474 97 644 212 79 54 211 186 263
264 126 188 196 408 222 698 13 145 13 1169 0 1310 -65 706 -462 1082 -1198
1135 -154 11 -8384 14 -8395 3z m8201 -1336 c65 -36 67 -48 67 -467 0 -371 0
-376 -23 -422 -15 -31 -34 -51 -56 -62 -31 -15 -346 -16 -3450 -16 l-3416 0 0
495 0 495 3423 -2 c3285 -3 3423 -4 3455 -21z"/>
<path d="M57250 8485 c-537 -81 -874 -376 -995 -873 -52 -212 -50 -128 -50
-2272 l0 -2005 653 -3 652 -2 0 775 0 775 3480 0 3480 0 2 -772 3 -773 660 0
660 0 3 1930 c2 1296 -1 1969 -8 2050 -25 289 -96 509 -225 705 -52 78 -186
211 -274 270 -116 78 -279 143 -461 183 l-95 21 -3700 2 c-2963 2 -3717 -1
-3785 -11z m7098 -1306 c58 -14 95 -48 111 -98 7 -26 11 -172 11 -460 l0 -421
-3481 0 -3480 0 3 433 c3 401 4 435 22 470 23 46 49 65 107 76 70 14 6650 13
6707 0z"/>
<path d="M66006 8492 c-4 -6 258 -309 1019 -1177 106 -121 293 -335 416 -475
122 -140 248 -284 280 -320 52 -59 483 -553 515 -591 12 -13 -21 -55 -249
-315 -144 -166 -287 -329 -317 -364 -66 -77 -572 -657 -749 -859 -69 -80 -238
-273 -375 -430 -229 -264 -346 -397 -371 -425 -17 -19 -148 -170 -163 -188
-14 -17 24 -18 790 -18 l805 0 199 217 c110 120 305 333 434 473 221 241 695
759 755 825 15 17 69 75 120 130 50 55 127 139 171 187 l79 88 1552 0 1553 0
2 -962 3 -961 650 2 c357 1 650 3 651 4 1 1 5 433 9 960 l8 957 1722 0 1721 0
51 -62 c28 -35 106 -130 173 -213 161 -198 394 -484 449 -554 25 -31 47 -58
51 -61 3 -3 55 -66 115 -140 96 -119 183 -226 475 -585 41 -50 113 -140 160
-198 l85 -106 813 0 812 -1 -117 148 c-64 81 -140 176 -168 212 -268 338 -441
557 -582 735 -35 44 -103 130 -151 190 -48 61 -220 279 -382 484 -162 205
-372 470 -467 589 l-171 216 44 56 c25 30 64 80 88 110 23 30 170 217 326 415
366 465 351 447 477 607 59 75 160 203 223 283 63 81 167 213 231 294 445 563
639 813 634 822 -4 5 -308 9 -788 9 l-782 0 -51 -63 c-75 -92 -557 -679 -638
-777 -39 -47 -107 -130 -151 -184 -44 -54 -127 -156 -185 -225 -58 -70 -175
-212 -260 -316 -85 -103 -188 -228 -228 -277 l-72 -88 -1735 0 -1735 0 -2 957
-3 958 -639 8 c-352 4 -646 5 -653 3 -11 -4 -13 -185 -13 -966 l0 -960 -1552
1 -1553 1 -49 56 c-27 31 -67 77 -90 102 -50 55 -260 289 -335 374 -30 33 -89
99 -131 146 -82 90 -205 228 -386 431 -156 174 -572 638 -661 737 l-75 82
-813 0 c-448 0 -816 -3 -819 -8z"/>
<path d="M20138 8324 c-430 -78 -819 -367 -1176 -874 -616 -877 -892 -2000
-869 -3546 5 -341 11 -414 72 -839 104 -720 300 -1338 583 -1840 184 -326 464
-674 702 -872 204 -169 434 -282 670 -329 117 -24 346 -24 464 0 337 66 639
248 930 559 265 283 374 452 551 852 424 960 624 1917 602 2875 -7 285 -36
615 -73 835 -104 620 -257 1139 -507 1720 -150 348 -192 425 -336 615 -231
306 -420 492 -643 634 -157 100 -363 181 -534 211 -107 19 -331 18 -436 -1z
m460 -873 c319 -93 622 -367 874 -790 432 -725 612 -1578 577 -2739 -28 -922
-212 -1629 -587 -2255 -166 -277 -349 -484 -538 -610 -116 -77 -198 -116 -321
-153 -77 -23 -107 -27 -233 -28 -108 -1 -164 4 -219 17 -486 117 -912 600
-1189 1347 -230 622 -344 1415 -312 2174 8 209 26 438 45 576 3 19 9 69 15
110 18 133 70 391 112 555 77 306 165 546 295 805 280 560 653 913 1063 1005
96 21 322 14 418 -14z"/>
<path d="M9827 6108 c-30 -32 -38 -50 -93 -229 -19 -60 -76 -154 -122 -202
-84 -86 -201 -138 -368 -161 -178 -25 -1357 -77 -2494 -111 -1185 -34 -2193
-52 -3630 -61 -1048 -7 -1156 -4 -1319 37 -114 28 -245 97 -324 169 -69 64
-164 196 -206 288 -14 28 -28 52 -31 52 -9 0 -130 -360 -169 -505 -43 -155
-77 -328 -97 -480 -18 -147 -23 -490 -7 -506 7 -7 22 28 48 108 91 285 195
404 400 458 120 31 252 37 552 26 1987 -75 4128 -39 6963 119 294 16 594 29
665 27 123 -2 133 -1 175 23 38 22 52 39 96 120 93 176 156 183 344 40 82 -63
258 -213 447 -381 68 -60 127 -109 133 -109 13 0 9 15 -37 134 -112 290 -260
521 -596 933 -161 197 -198 232 -258 240 -35 5 -43 2 -72 -29z"/>
<path d="M11880 3150 c-191 -25 -2069 -121 -3295 -170 -2177 -85 -3547 -111
-5858 -112 l-1607 0 -83 41 c-163 82 -294 76 -390 -17 -61 -58 -80 -104 -85
-202 -3 -77 -2 -88 20 -119 42 -62 79 -76 198 -75 338 5 667 3 1070 -6 780
-17 3109 -24 3985 -11 1784 26 3373 82 4700 166 638 40 2126 145 2178 153 l47
7 -35 50 c-92 130 -202 216 -338 268 -79 29 -88 30 -262 33 -99 1 -209 -1
-245 -6z"/>
</g>
</svg>
