<?xml version="1.0" standalone="no"?>
<!DOCTYPE svg PUBLIC "-//W3C//DTD SVG 20010904//EN"
 "http://www.w3.org/TR/2001/REC-SVG-20010904/DTD/svg10.dtd">
<svg version="1.0" xmlns="http://www.w3.org/2000/svg"
 width="8042.000000pt" height="1597.000000pt" viewBox="0 0 8042.000000 1597.000000"
 preserveAspectRatio="xMidYMid meet">
<metadata>
Created by potrace 1.16, written by Peter Selinger 2001-2019
</metadata>
<g transform="translate(0.000000,1597.000000) scale(0.100000,-0.100000)"
fill="#000000" stroke="none">
<path d="M23860 15960 c-2112 -34 -4258 -187 -6525 -465 -1903 -233 -3363
-553 -4402 -966 -1192 -473 -2291 -1137 -3788 -2289 -476 -367 -740 -533
-1109 -700 -386 -174 -703 -266 -1206 -350 -1086 -181 -2207 -423 -3340 -721
-687 -181 -891 -257 -1140 -425 -89 -60 -242 -184 -248 -202 -6 -18 348 -122
568 -166 1105 -222 2258 -242 3845 -65 807 89 2537 331 4190 584 4205 644
4623 697 5670 712 595 8 739 -8 848 -93 61 -47 100 -126 105 -209 7 -100 -33
-156 -186 -264 -40 -29 -117 -87 -171 -129 -650 -519 -1509 -976 -2498 -1331
-387 -139 -630 -161 -985 -92 -235 46 -429 57 -722 43 -1313 -66 -2659 -331
-4331 -853 -1621 -507 -3265 -590 -5435 -274 -479 70 -948 153 -1620 287 -310
62 -370 71 -470 72 -183 1 -277 -41 -368 -163 -49 -66 -215 -394 -270 -536
-281 -715 -338 -1481 -191 -2568 13 -92 26 -164 30 -160 4 5 42 168 84 363
135 631 204 880 317 1143 148 342 318 518 573 592 149 43 254 43 550 1 855
-120 1618 -161 2607 -138 1668 39 3289 203 5328 538 493 81 592 94 727 94 221
0 309 -34 449 -174 104 -105 181 -216 409 -591 622 -1023 1054 -1655 1477
-2162 373 -447 575 -632 850 -777 257 -136 463 -171 859 -147 733 45 1172 85
1676 152 526 69 718 128 862 263 146 139 218 307 382 895 263 944 390 1331
597 1819 317 751 779 1423 1247 1817 359 302 720 472 1125 531 171 25 470 15
640 -21 594 -124 1197 -527 1605 -1071 157 -210 303 -471 419 -750 32 -77 132
-359 223 -629 l164 -490 -5 160 c-21 714 -368 1722 -831 2415 -451 674 -932
996 -1640 1097 -167 24 -611 24 -820 0 -164 -19 -407 -58 -554 -88 -52 -11
-97 -17 -99 -14 -18 18 149 150 255 204 427 214 1329 266 1936 112 226 -57
246 -54 425 67 279 188 593 304 997 367 71 11 114 23 123 33 19 25 14 105 -13
189 -14 44 -25 102 -25 134 0 54 23 144 40 154 17 11 151 -244 223 -425 100
-249 162 -493 207 -812 27 -196 36 -294 65 -728 40 -587 78 -864 148 -1065
l14 -40 6 45 c37 260 42 808 14 1483 -20 459 -22 758 -6 842 13 74 49 145 88
178 17 14 57 35 88 47 67 25 181 32 813 50 343 10 641 21 1640 61 157 7 647
13 1090 14 893 3 899 4 1096 70 283 94 490 243 859 614 l180 181 -239 0 c-131
0 -1060 -25 -2064 -55 -1608 -48 -2382 -71 -3957 -116 -220 -6 -443 -9 -495
-5 -299 19 -431 149 -390 383 13 77 34 131 149 393 554 1251 1048 2047 1702
2741 349 371 670 591 1025 702 431 136 1339 166 2154 71 1393 -161 2871 -594
4500 -1319 552 -245 1294 -603 1399 -674 123 -84 177 -106 263 -106 44 0 82 5
88 11 15 15 -8 71 -41 100 -62 55 -341 238 -629 411 -2220 1338 -4679 2055
-7450 2172 -348 15 -1187 20 -1750 11z m453 -436 c3 -3 -36 -40 -86 -82 -249
-205 -590 -531 -834 -797 -269 -293 -576 -669 -973 -1194 -399 -526 -509 -671
-589 -770 -195 -243 -432 -370 -806 -431 -204 -33 -699 -72 -1560 -125 -2171
-132 -2388 -158 -5815 -694 -1230 -193 -1662 -257 -2429 -361 -1065 -145
-1452 -176 -2059 -167 -372 5 -538 17 -817 58 -138 20 -424 75 -432 83 -2 2
20 7 49 11 305 39 578 174 958 474 368 290 1089 805 1725 1232 1288 865 2342
1384 3435 1694 690 196 2141 461 3355 614 1552 196 2732 280 5620 401 658 28
1230 55 1246 59 3 0 8 -2 12 -5z m-9408 -9638 c199 -53 359 -197 459 -410 125
-268 189 -610 157 -848 -25 -189 -97 -384 -166 -454 -61 -61 -109 -73 -325
-84 -102 -6 -286 -17 -410 -26 -309 -23 -610 -23 -715 0 -267 58 -393 214
-600 741 -124 317 -161 361 -490 576 -159 104 -265 189 -328 263 l-47 55 32 5
c18 3 346 35 728 71 382 36 853 81 1045 100 383 37 551 40 660 11z"/>
<path d="M26085 15120 c-685 -60 -1230 -371 -1654 -943 -68 -92 -161 -232
-161 -243 0 -3 33 24 73 61 296 276 704 507 1112 630 401 121 892 175 1340
146 245 -15 349 -47 446 -138 88 -83 152 -193 247 -433 118 -297 201 -567 352
-1147 50 -191 107 -404 126 -473 40 -141 114 -373 118 -368 5 6 -13 352 -24
468 -40 421 -112 854 -246 1480 -34 158 -38 291 -10 336 59 98 152 96 637 -11
1283 -283 2579 -722 3934 -1333 171 -77 349 -153 395 -170 180 -63 365 -92
582 -92 196 0 196 0 -3 102 -821 419 -1696 802 -2708 1185 -1497 566 -2705
858 -3861 933 -232 15 -582 20 -695 10z"/>
<path d="M24540 13129 c-454 -24 -658 -135 -782 -426 -40 -93 -86 -290 -107
-463 -23 -184 -35 -320 -28 -320 2 0 58 25 123 56 337 159 665 270 1012 344
593 126 1171 148 2027 77 26 -2 30 2 41 38 7 22 13 72 13 110 2 178 -129 297
-434 395 -355 113 -759 171 -1321 190 -316 10 -333 10 -544 -1z"/>
<path d="M44660 12720 c-219 -18 -449 -73 -628 -150 -39 -17 -51 -27 -47 -39
3 -9 54 -140 114 -291 72 -180 114 -274 123 -273 7 1 52 18 101 38 283 117
622 139 774 49 51 -30 76 -74 75 -132 0 -56 -23 -89 -80 -115 -44 -21 -66 -22
-370 -27 l-324 -5 1 -280 1 -280 372 -5 c411 -6 418 -7 471 -69 43 -51 34
-126 -21 -185 -57 -61 -220 -106 -383 -106 -165 0 -412 45 -602 109 l-88 29
-9 -21 c-4 -12 -55 -134 -114 -271 -58 -137 -103 -252 -101 -257 10 -15 221
-91 349 -124 482 -125 975 -106 1345 54 119 51 215 116 298 204 111 117 153
222 153 387 0 175 -47 289 -170 410 -50 49 -102 89 -148 113 -40 21 -72 40
-72 42 0 1 22 17 50 35 68 43 154 139 190 211 64 127 76 292 30 424 -88 253
-400 447 -820 510 -123 18 -349 26 -470 15z"/>
<path d="M42379 12710 c-405 -39 -743 -215 -957 -499 -291 -386 -319 -947 -68
-1367 175 -293 470 -495 841 -576 132 -29 414 -36 563 -14 443 65 794 307 978
675 87 174 118 318 119 546 0 183 -13 271 -62 415 -141 416 -524 723 -1003
804 -112 19 -304 26 -411 16z m251 -650 c118 -22 226 -91 302 -191 85 -113
119 -224 119 -389 1 -179 -45 -315 -145 -427 -243 -272 -687 -210 -849 118
-117 238 -80 556 85 734 125 134 301 190 488 155z"/>
<path d="M58375 12709 c-474 -48 -844 -287 -1035 -669 -84 -168 -118 -303
-127 -501 -25 -532 251 -980 729 -1185 188 -80 361 -114 592 -114 314 0 557
66 787 215 77 50 274 237 268 254 -2 6 -54 55 -115 108 -61 54 -171 152 -245
219 l-135 121 -76 -76 c-165 -166 -358 -229 -567 -187 -109 22 -191 64 -267
138 -115 110 -166 246 -167 443 0 289 125 485 361 567 95 33 288 33 379 0 96
-34 181 -89 262 -170 l74 -74 23 19 c62 49 473 419 473 427 1 13 -148 163
-209 210 -167 129 -383 216 -606 245 -122 16 -300 20 -399 10z"/>
<path d="M34510 12613 c-137 -311 -1010 -2312 -1010 -2317 0 -3 181 -6 403 -6
l403 0 79 205 78 205 455 -2 454 -3 78 -200 77 -200 413 -3 c359 -2 411 0 407
12 -3 9 -236 542 -518 1186 l-512 1170 -393 0 -393 0 -21 -47z m526 -1041
l111 -287 -225 -3 c-124 -1 -227 -1 -229 2 -2 2 46 135 108 295 61 160 115
289 118 285 3 -3 56 -135 117 -292z"/>
<path d="M36580 11475 l0 -1186 743 4 c650 3 753 5 829 20 341 68 553 226 630
472 32 101 32 281 0 382 -44 142 -148 256 -303 331 l-76 38 40 24 c64 40 160
141 194 207 45 84 63 161 63 273 0 164 -40 270 -144 378 -98 103 -230 168
-431 215 -86 20 -124 21 -817 24 l-728 4 0 -1186z m1165 625 c63 -10 96 -29
129 -74 30 -40 30 -162 0 -203 -47 -63 -68 -68 -301 -71 l-213 -3 0 174 c0 95
3 177 7 180 10 11 311 8 378 -3z m175 -902 c59 -31 80 -73 80 -164 0 -78 -18
-117 -73 -158 -27 -20 -43 -21 -298 -24 l-269 -3 0 185 0 186 258 0 c248 0
259 -1 302 -22z"/>
<path d="M38910 12350 l0 -310 345 0 345 0 0 -875 0 -875 395 0 395 0 0 875 0
875 345 0 345 0 0 310 0 310 -1085 0 -1085 0 0 -310z"/>
<path d="M47197 12653 c-5 -8 -620 -1412 -667 -1523 -15 -36 -103 -235 -194
-444 -91 -208 -166 -383 -166 -387 0 -5 181 -9 403 -9 l402 0 39 103 c21 56
57 148 79 205 l39 102 455 -2 454 -3 75 -195 c41 -107 78 -198 82 -202 5 -5
191 -7 415 -6 l406 3 -83 190 c-45 105 -165 379 -266 610 -101 231 -233 535
-295 675 -61 140 -174 398 -250 573 l-139 317 -392 0 c-216 0 -395 -3 -397 -7z
m503 -1068 c57 -148 105 -278 108 -287 4 -17 -11 -18 -222 -18 -124 0 -226 3
-226 8 0 4 41 113 91 242 50 129 100 259 111 288 11 30 23 50 28 45 4 -4 53
-129 110 -278z"/>
<path d="M49250 11475 l0 -1185 390 0 390 0 0 875 0 875 363 0 362 0 -3 -875
-3 -875 396 0 395 0 0 1185 0 1185 -1145 0 -1145 0 0 -1185z"/>
<path d="M51783 12218 c5 -483 9 -530 71 -692 69 -180 215 -340 393 -430 233
-116 612 -148 918 -76 44 10 88 22 98 25 16 7 17 -15 17 -374 l0 -381 395 0
395 0 0 1185 0 1185 -395 0 -395 0 0 -500 0 -499 -51 -15 c-142 -43 -347 -45
-451 -6 -101 38 -171 125 -197 248 -7 34 -11 184 -11 412 l0 360 -396 0 -396
0 5 -442z"/>
<path d="M54811 11483 c-283 -648 -516 -1181 -518 -1186 -3 -4 179 -6 402 -5
l407 3 78 200 77 200 455 3 454 2 79 -205 78 -205 413 0 413 0 -65 148 c-35
81 -268 613 -517 1182 l-453 1035 -394 3 -395 2 -514 -1177z m1019 93 c61
-158 109 -290 107 -292 -2 -3 -106 -3 -229 -2 l-226 3 105 270 c58 149 109
281 114 294 5 13 11 22 13 20 3 -2 54 -134 116 -293z"/>
<path d="M59680 12350 l0 -310 350 0 350 0 0 -875 0 -875 390 0 390 0 0 875 0
875 348 2 347 3 3 308 2 307 -1090 0 -1090 0 0 -310z"/>
<path d="M62120 11475 l0 -1185 379 0 378 0 189 285 c104 157 286 431 404 610
l215 324 3 -609 2 -610 395 0 395 0 0 1185 0 1185 -377 0 -378 0 -180 -273
c-98 -149 -281 -425 -405 -612 l-225 -339 -3 612 -2 612 -395 0 -395 0 0
-1185z"/>
<path d="M16380 10587 c-3 -3 -126 -15 -275 -27 -1046 -82 -2092 -203 -3085
-355 -700 -107 -1499 -252 -1690 -306 -480 -136 -831 -420 -1195 -965 -47 -70
-83 -129 -82 -131 2 -2 107 19 233 46 126 27 321 64 434 81 113 17 322 51 465
76 734 128 956 161 1295 196 73 8 253 13 435 13 323 -1 462 -12 690 -56 122
-23 146 -23 215 -3 72 21 145 97 235 242 192 312 413 530 663 656 46 23 72 32
72 23 0 -34 -46 -172 -84 -252 -23 -50 -90 -165 -148 -255 -108 -169 -184
-308 -174 -318 8 -7 465 171 651 253 645 286 1104 537 1551 848 88 62 174 122
189 133 l29 22 -34 17 c-81 42 -145 57 -265 62 -66 3 -122 3 -125 0z"/>
<path d="M1782 9515 c-89 -20 -147 -51 -219 -119 -81 -75 -132 -153 -251 -383
-106 -204 -143 -263 -210 -335 -39 -42 -42 -48 -26 -54 11 -4 183 -72 384
-152 409 -163 578 -220 749 -256 106 -23 386 -54 395 -45 11 11 58 529 63 689
14 446 -59 531 -539 635 -151 32 -264 39 -346 20z"/>
<path d="M9605 9209 c-129 -30 -801 -165 -1040 -208 -1129 -206 -2241 -340
-3165 -381 -289 -13 -1030 -13 -1275 0 -426 22 -876 63 -1180 106 l-40 6 39
-27 c203 -142 679 -236 1396 -275 239 -13 1018 -13 1320 0 1671 72 3215 327
3820 630 99 50 214 129 224 155 7 18 3 18 -99 -6z"/>
<path d="M26130 5920 l0 -2580 655 0 655 0 0 1915 0 1915 4140 0 4140 0 0 665
0 665 -4795 0 -4795 0 0 -2580z"/>
<path d="M37300 8489 c-193 -17 -398 -75 -540 -151 -306 -166 -482 -430 -567
-848 -15 -78 -17 -245 -20 -2117 l-4 -2033 651 0 650 0 0 775 0 775 3485 0
3485 0 0 -775 0 -775 655 0 655 0 0 1983 c0 2122 1 2079 -50 2277 -30 117 -57
193 -98 275 -164 328 -433 517 -847 597 l-120 23 -3620 1 c-1991 1 -3663 -2
-3715 -7z m7067 -1325 c15 -12 37 -36 48 -55 19 -33 20 -52 20 -474 l0 -440
-3483 -3 -3483 -2 3 447 c3 425 4 450 23 481 10 17 37 41 60 52 40 20 58 20
3412 18 l3372 -3 28 -21z"/>
<path d="M57340 8489 c-570 -50 -945 -352 -1076 -866 -55 -220 -54 -157 -54
-2304 l0 -1979 650 0 650 0 0 775 0 775 3485 0 3485 0 0 -775 0 -775 655 0
655 0 -3 2028 c-3 1863 -4 2034 -20 2112 -61 302 -163 513 -329 678 -193 193
-449 299 -803 332 -135 12 -7153 11 -7295 -1z m7067 -1325 c15 -12 37 -36 48
-55 19 -33 20 -52 20 -474 l0 -440 -3483 -3 -3483 -2 3 447 c3 506 1 493 80
532 l43 21 3372 -2 3372 -3 28 -21z"/>
<path d="M46170 5910 l0 -2580 655 0 655 0 0 770 0 770 3603 2 c3430 3 3606 4
3692 21 185 38 357 105 492 193 82 54 222 196 277 282 91 140 149 294 189 500
22 114 22 132 22 822 0 786 -2 810 -70 1017 -62 187 -139 317 -259 437 -191
191 -453 300 -805 336 -70 7 -1441 10 -4277 10 l-4174 0 0 -2580z m8193 1258
c28 -13 43 -29 58 -63 19 -43 20 -63 17 -427 -3 -352 -5 -386 -22 -421 -10
-21 -33 -46 -50 -55 -29 -16 -250 -17 -3458 -20 l-3428 -2 0 498 c0 274 3 502
7 505 3 4 1544 6 3422 5 3203 -3 3418 -4 3454 -20z"/>
<path d="M66022 8473 c8 -10 491 -562 1073 -1228 582 -665 1082 -1237 1111
-1270 l52 -60 -91 -106 c-51 -58 -319 -366 -597 -684 -278 -318 -548 -628
-601 -689 -53 -61 -291 -334 -528 -606 l-432 -495 793 -3 793 -2 50 52 c28 29
123 132 211 228 248 272 706 772 737 805 15 17 195 213 400 437 l372 408 1558
0 1557 0 0 -967 0 -966 383 6 c210 4 502 7 650 7 l267 0 0 960 0 960 1728 0
1728 0 159 -196 c251 -308 787 -967 895 -1099 175 -215 373 -459 445 -548 l70
-87 804 0 c765 0 803 1 789 18 -8 9 -145 181 -303 382 -159 201 -390 493 -515
650 -412 520 -445 561 -510 645 -63 81 -416 526 -593 749 -49 61 -91 116 -93
123 -4 9 440 588 605 789 40 48 173 218 472 599 151 193 424 540 607 772 183
232 332 425 332 428 0 3 -352 5 -782 5 l-783 0 -125 -153 c-68 -83 -194 -237
-280 -341 -85 -104 -220 -269 -300 -366 -244 -297 -689 -839 -783 -952 l-89
-108 -1744 0 -1744 0 0 960 0 960 -645 0 -645 0 0 -960 0 -960 -1562 2 -1562
3 -126 140 c-69 77 -294 329 -501 560 -207 231 -501 560 -654 730 -152 171
-313 349 -357 398 l-79 87 -816 0 c-776 0 -815 -1 -801 -17z"/>
<path d="M20255 8334 c-144 -20 -194 -30 -286 -60 -339 -109 -655 -358 -934
-734 -539 -728 -830 -1607 -915 -2760 -15 -205 -33 -948 -25 -1050 44 -588
166 -1258 311 -1703 200 -613 511 -1144 899 -1532 234 -235 468 -375 745 -448
107 -28 128 -30 295 -31 115 -1 202 4 240 12 329 73 588 223 871 506 202 203
348 391 453 587 61 114 193 410 275 617 226 573 375 1161 441 1742 48 429 48
951 0 1380 -77 677 -255 1332 -547 2010 -91 209 -186 404 -231 470 -146 215
-408 513 -556 632 -224 180 -466 300 -693 343 -83 15 -287 27 -343 19z m257
-859 c218 -38 413 -149 614 -349 316 -316 605 -856 753 -1407 119 -444 168
-827 178 -1404 15 -905 -98 -1595 -362 -2209 -157 -366 -387 -724 -583 -908
-597 -558 -1314 -406 -1834 387 -317 483 -531 1174 -613 1985 -22 210 -31 776
-16 1000 66 1000 332 1833 756 2365 80 100 237 257 326 324 247 188 517 262
781 216z"/>
<path d="M9870 6132 c-45 -14 -77 -69 -110 -187 -79 -285 -244 -412 -580 -444
-283 -28 -1924 -92 -3105 -121 -1318 -33 -3765 -57 -4017 -40 -303 20 -484 92
-631 249 -56 59 -140 188 -163 249 -9 23 -20 42 -23 42 -9 0 -123 -346 -165
-500 -40 -147 -70 -294 -91 -440 -18 -127 -31 -427 -21 -494 l8 -48 44 133
c75 225 153 333 284 397 130 63 160 67 520 66 179 -1 476 -6 660 -13 813 -28
2470 -24 3570 9 969 30 2419 95 3294 150 82 5 192 6 245 3 76 -5 108 -2 148
11 61 20 81 41 122 128 40 86 73 124 117 138 92 31 163 -18 612 -412 111 -99
202 -174 202 -167 0 19 -89 236 -130 319 -75 150 -182 319 -298 470 -131 171
-360 446 -392 468 -36 27 -78 41 -100 34z"/>
<path d="M12030 3164 c-456 -50 -2768 -164 -4430 -219 -1748 -57 -2869 -75
-4830 -77 -833 -1 -1544 -1 -1580 -1 -56 -1 -76 5 -138 36 -40 21 -100 45
-134 53 -194 50 -358 -75 -360 -274 0 -95 19 -134 82 -167 32 -17 75 -18 575
-20 297 -1 900 -8 1340 -15 883 -14 3306 -8 4065 9 1937 45 3156 99 4680 206
190 13 581 40 870 60 289 20 540 38 558 41 l33 5 -20 32 c-99 158 -257 274
-424 311 -66 15 -228 26 -287 20z"/>
</g>
</svg>
